<?xml version="1.0" standalone="no"?>
<!DOCTYPE svg PUBLIC "-//W3C//DTD SVG 20010904//EN"
 "http://www.w3.org/TR/2001/REC-SVG-20010904/DTD/svg10.dtd">
<svg version="1.0" xmlns="http://www.w3.org/2000/svg"
 width="128.000000pt" height="128.000000pt" viewBox="0 0 128.000000 128.000000"
 preserveAspectRatio="xMidYMid meet">

<g transform="translate(0.000000,128.000000) scale(0.100000,-0.100000)"
fill="#000000" stroke="none">
<path d="M500 1270 c0 -5 -18 -10 -39 -10 -25 0 -41 -5 -45 -15 -3 -8 -12 -15
-21 -15 -8 0 -15 -4 -15 -10 0 -5 -7 -10 -15 -10 -8 0 -15 -4 -15 -10 0 -5 7
-10 15 -10 8 0 15 5 15 10 0 6 15 10 34 10 21 0 36 6 40 15 3 8 14 15 25 15
11 0 23 5 26 10 6 10 75 15 75 5 0 -3 -9 -14 -20 -25 -14 -14 -33 -20 -65 -20
-25 0 -45 -4 -45 -10 0 -5 -11 -10 -25 -10 -16 0 -25 -6 -25 -15 0 -9 -9 -15
-25 -15 -14 0 -25 -4 -25 -10 0 -5 -11 -10 -25 -10 -14 0 -25 -4 -25 -10 0 -5
-9 -10 -20 -10 -11 0 -20 5 -20 10 0 6 7 10 15 10 8 0 15 5 15 10 0 15 -20 12
-38 -7 -12 -12 -13 -18 -4 -21 6 -2 12 -15 12 -28 0 -13 4 -24 10 -24 12 0 50
-32 50 -42 0 -5 -7 -8 -15 -8 -8 0 -15 5 -15 10 0 6 -7 10 -15 10 -8 0 -15 -7
-15 -15 0 -8 7 -15 15 -15 8 0 15 -4 15 -10 0 -5 11 -10 25 -10 16 0 25 6 25
15 0 8 7 15 15 15 20 0 20 -46 -1 -54 -8 -3 -12 -10 -9 -16 9 -15 25 -12 25 5
0 8 5 15 10 15 6 0 10 11 10 25 0 18 5 25 20 25 11 0 20 5 20 10 0 6 11 10 25
10 16 0 25 6 25 15 0 9 9 15 25 15 28 0 75 20 75 32 0 4 9 8 20 8 11 0 20 5
20 10 0 6 7 10 15 10 8 0 15 -4 15 -10 0 -5 10 -10 23 -10 12 0 29 -9 37 -20
10 -14 26 -20 52 -20 27 0 38 -4 38 -15 0 -9 9 -15 25 -15 14 0 25 -4 25 -10
0 -5 7 -10 15 -10 9 0 15 -9 15 -25 0 -16 6 -25 15 -25 8 0 15 -7 15 -15 0 -8
5 -15 10 -15 6 0 10 7 10 15 0 8 -4 15 -10 15 -5 0 -10 11 -10 25 0 27 17 34
26 10 9 -23 44 -18 69 12 21 24 25 25 39 10 9 -8 16 -25 16 -36 0 -12 6 -21
15 -21 8 0 15 -4 15 -10 0 -5 -7 -10 -15 -10 -8 0 -15 -7 -15 -15 0 -19 -5
-19 -30 2 -24 21 -26 33 -5 33 8 0 15 9 15 20 0 11 -3 20 -7 20 -34 -2 -67
-85 -38 -96 10 -4 15 -20 15 -43 0 -35 25 -71 50 -71 6 0 10 -7 10 -15 0 -8 5
-15 10 -15 6 0 10 -22 10 -50 0 -38 -4 -50 -15 -50 -8 0 -15 5 -15 10 0 6 -4
10 -10 10 -5 0 -10 -18 -10 -40 0 -22 5 -40 10 -40 6 0 10 5 10 10 0 6 7 10
15 10 8 0 15 7 15 15 0 8 7 15 15 15 8 0 15 -7 15 -15 0 -8 5 -15 10 -15 6 0
10 -13 10 -29 0 -16 6 -31 15 -35 9 -3 15 -19 15 -41 0 -24 -4 -35 -15 -35 -8
0 -15 -4 -15 -10 0 -5 -7 -10 -15 -10 -9 0 -15 9 -15 25 0 16 6 25 15 25 8 0
15 7 15 15 0 8 -4 15 -10 15 -5 0 -10 18 -10 40 0 29 -4 40 -15 40 -8 0 -15
-7 -15 -15 0 -8 -7 -15 -15 -15 -9 0 -15 -9 -15 -25 0 -16 6 -25 15 -25 8 0
15 -5 15 -11 0 -14 -25 -39 -39 -39 -6 0 -11 -4 -11 -10 0 -14 -27 -12 -34 3
-5 10 -7 10 -12 0 -7 -15 -54 -17 -54 -3 0 6 5 10 10 10 6 0 10 7 10 15 0 8 5
15 11 15 14 0 39 25 39 39 0 6 5 11 10 11 6 0 10 7 10 15 0 8 -4 15 -10 15 -5
0 -10 -4 -10 -10 0 -13 -57 -70 -70 -70 -5 0 -10 -5 -10 -10 0 -6 -11 -22 -25
-36 -14 -14 -25 -36 -25 -49 0 -19 -5 -25 -20 -25 -12 0 -31 -11 -44 -25 -13
-14 -28 -25 -35 -25 -6 0 -11 -7 -11 -15 0 -8 7 -15 15 -15 8 0 15 7 15 15 0
8 7 15 15 15 8 0 15 4 15 9 0 6 17 11 38 13 34 3 37 6 40 36 3 31 4 32 53 32
42 0 49 -3 49 -20 0 -11 -4 -20 -10 -20 -5 0 -10 -7 -10 -15 0 -8 -7 -15 -15
-15 -8 0 -15 -4 -15 -10 0 -5 7 -10 15 -10 9 0 15 -10 15 -26 0 -19 -7 -28
-30 -35 -16 -6 -30 -15 -30 -20 0 -5 -4 -9 -10 -9 -15 0 -12 58 3 63 6 2 8 8
4 13 -4 5 -12 2 -16 -5 -5 -8 -31 -16 -59 -19 -49 -4 -50 -5 -56 -43 -6 -35
-9 -39 -37 -39 -36 0 -66 -14 -96 -47 l-23 -24 -22 24 c-32 34 -61 47 -102 47
-35 0 -36 1 -36 40 l0 40 -44 0 c-26 0 -51 6 -60 15 -17 17 -36 20 -36 5 0 -5
7 -10 15 -10 17 0 20 -27 6 -49 -8 -12 -12 -12 -26 2 -21 21 -30 21 -55 0 -24
-21 -26 -33 -5 -33 8 0 15 5 15 10 0 6 7 10 15 10 8 0 15 -7 15 -15 0 -8 -7
-16 -15 -16 -8 -1 -19 -2 -24 -3 -19 -2 -71 48 -71 70 0 12 -5 24 -12 26 -8 3
-5 11 9 25 16 16 23 18 36 8 18 -13 23 -45 7 -45 -5 0 -10 -7 -10 -16 0 -11 5
-14 16 -10 9 3 20 6 25 6 5 0 9 14 9 30 0 20 5 30 15 30 27 0 16 18 -15 25
-25 5 -30 12 -30 35 0 33 11 38 68 32 40 -4 42 -5 42 -38 0 -33 1 -34 40 -34
22 0 40 -4 40 -10 0 -5 7 -10 15 -10 8 0 15 -7 15 -15 0 -8 7 -15 15 -15 8 0
15 3 15 8 0 10 -38 42 -50 42 -6 0 -10 7 -10 15 0 9 -9 15 -25 15 -20 0 -25 5
-25 25 0 14 -4 25 -9 25 -5 0 -13 9 -16 20 -6 20 -35 28 -35 10 0 -15 -47 -12
-53 3 -4 9 -8 9 -15 -2 -7 -9 -16 -11 -28 -6 -11 5 -23 9 -29 10 -5 0 -9 6 -7
13 1 7 -2 12 -8 12 -5 0 -10 25 -10 55 0 42 -3 55 -15 55 -11 0 -15 -11 -15
-40 0 -29 -4 -40 -15 -40 -8 0 -15 -7 -15 -15 0 -8 9 -15 20 -15 15 0 20 -7
20 -25 0 -16 -6 -25 -15 -25 -8 0 -15 5 -15 10 0 6 -7 10 -15 10 -20 0 -20 69
0 84 20 15 8 56 -16 56 -11 0 -19 -4 -19 -10 0 -5 -11 -10 -25 -10 -22 0 -25
4 -25 40 0 36 3 40 25 40 16 0 25 -6 25 -15 0 -8 9 -15 20 -15 11 0 20 -7 20
-15 0 -8 7 -15 15 -15 8 0 15 7 15 15 0 8 7 15 15 15 8 0 15 -7 15 -15 0 -8 5
-15 11 -15 14 0 39 -25 39 -39 0 -6 5 -11 10 -11 6 0 10 -7 10 -15 0 -8 5 -15
11 -15 14 0 39 -25 39 -39 0 -6 7 -11 15 -11 8 0 15 7 15 15 0 8 -5 15 -10 15
-13 0 -70 57 -70 70 0 6 -4 10 -10 10 -17 0 -12 77 5 84 19 7 19 26 0 26 -8 0
-15 -5 -15 -11 0 -17 -29 -41 -44 -36 -8 3 -12 16 -10 29 12 84 16 98 29 98 8
0 15 5 15 10 0 6 7 10 15 10 11 0 15 12 15 45 0 33 4 45 15 45 11 0 15 11 15
40 0 29 -4 40 -15 40 -8 0 -15 5 -15 10 0 6 -4 10 -10 10 -5 0 -10 -9 -10 -20
0 -11 5 -20 10 -20 15 0 12 -19 -4 -36 -19 -18 -26 -18 -26 1 0 8 -7 15 -15
15 -8 0 -15 5 -15 10 0 6 5 10 10 10 6 0 10 8 10 19 0 10 11 27 25 37 29 22
33 44 8 44 -20 0 -63 -41 -63 -59 0 -6 -4 -11 -10 -11 -5 0 -10 -7 -10 -15 0
-8 -7 -15 -15 -15 -8 0 -15 -7 -15 -15 0 -8 -4 -15 -10 -15 -5 0 -10 -13 -10
-30 0 -20 5 -30 15 -30 8 0 15 5 15 10 0 15 19 12 37 -6 9 -8 22 -13 29 -10
19 7 18 -12 -1 -30 -8 -9 -15 -11 -15 -5 0 6 -18 11 -40 11 -29 0 -40 4 -40
15 0 8 -4 15 -10 15 -5 0 -10 14 -10 30 0 17 5 30 10 30 6 0 10 7 10 16 0 18
23 44 39 44 6 0 11 9 11 20 0 11 5 20 10 20 6 0 10 7 10 15 0 8 4 15 10 15 17
0 50 39 39 46 -10 6 -69 -48 -69 -64 0 -4 -9 -14 -20 -22 -11 -8 -20 -19 -20
-25 0 -6 -9 -17 -20 -25 -11 -8 -20 -24 -20 -37 0 -12 -4 -25 -10 -28 -5 -3
-10 -19 -10 -36 0 -16 -4 -29 -10 -29 -5 0 -10 -6 -10 -14 0 -8 -4 -16 -10
-18 -24 -8 -23 -338 1 -338 5 0 9 23 9 50 0 65 25 70 33 8 4 -24 9 -55 13 -70
5 -22 3 -28 -10 -28 -9 0 -16 7 -16 15 0 8 -4 15 -10 15 -13 0 -13 -17 0 -25
6 -3 10 -19 10 -36 0 -16 5 -29 10 -29 6 0 10 -11 10 -25 0 -14 5 -25 10 -25
6 0 10 -7 10 -15 0 -8 5 -15 10 -15 6 0 10 -4 10 -10 0 -5 27 -37 60 -71 33
-33 60 -65 60 -70 0 -5 8 -9 19 -9 10 0 24 -7 31 -15 7 -8 19 -15 28 -15 8 0
30 -11 48 -25 18 -14 37 -25 43 -25 6 0 11 -4 11 -10 0 -5 18 -10 40 -10 22 0
40 -4 40 -10 0 -5 18 -10 39 -10 22 0 43 -4 46 -10 3 -5 28 -10 56 -10 27 0
49 5 49 10 0 6 18 10 39 10 22 0 43 5 46 10 3 6 24 10 46 10 21 0 39 5 39 10
0 6 6 10 13 10 7 0 24 11 39 25 15 14 36 25 46 25 11 0 25 7 32 15 7 8 21 15
31 15 11 0 19 4 19 9 0 5 27 37 60 70 33 34 60 66 60 71 0 6 5 10 10 10 6 0
10 7 10 15 0 8 5 15 10 15 6 0 10 11 10 24 0 14 5 28 10 31 6 3 10 19 10 36 0
16 5 29 10 29 6 0 10 6 10 14 0 8 6 16 13 19 9 3 12 45 12 167 0 122 -3 164
-12 168 -7 2 -13 10 -13 18 0 8 -4 14 -10 14 -5 0 -10 13 -10 29 0 17 -4 33
-10 36 -5 3 -10 16 -10 28 0 13 -9 29 -20 37 -11 8 -20 19 -20 25 0 6 -9 17
-20 25 -11 8 -20 18 -20 22 0 5 -14 22 -30 40 -23 24 -33 29 -42 20 -9 -9 -9
-12 0 -12 7 0 12 -7 12 -15 0 -20 -36 -19 -44 1 -10 25 -7 34 9 34 8 0 15 5
15 10 0 6 -7 10 -15 10 -8 0 -15 5 -15 10 0 6 -8 10 -17 10 -17 -1 -17 -1 0
-14 21 -16 22 -26 2 -26 -8 0 -15 5 -15 10 0 6 -11 10 -25 10 -14 0 -25 5 -25
10 0 6 -11 10 -25 10 -16 0 -25 6 -25 15 0 10 -10 15 -30 15 -16 0 -30 5 -30
10 0 6 -19 10 -43 10 -30 0 -48 6 -60 20 -9 11 -17 22 -17 25 0 10 69 5 75 -5
3 -5 15 -10 26 -10 10 0 19 -7 19 -15 0 -11 11 -15 40 -15 22 0 40 -4 40 -10
0 -5 7 -10 15 -10 8 0 15 -4 15 -10 0 -5 11 -10 25 -10 14 0 25 5 25 10 0 6
-11 10 -25 10 -14 0 -25 5 -25 10 0 6 -6 10 -14 10 -8 0 -16 7 -20 15 -3 8
-12 15 -21 15 -8 0 -15 5 -15 10 0 6 -18 10 -39 10 -22 0 -43 5 -46 10 -4 6
-62 10 -141 10 -83 0 -134 -4 -134 -10z m170 -25 c0 -14 7 -28 15 -31 8 -4 15
-10 15 -15 0 -13 -27 -11 -51 4 -17 10 -23 10 -26 0 -6 -15 -43 -17 -43 -3 0
6 5 10 10 10 6 0 10 14 10 30 0 28 3 30 35 30 31 0 35 -3 35 -25z m-110 -70
c0 -8 5 -15 10 -15 6 0 10 -7 10 -15 0 -9 -9 -15 -24 -15 -15 0 -26 -7 -29
-20 -3 -12 -14 -20 -26 -20 -23 0 -29 25 -8 33 7 2 8 8 3 13 -5 5 -11 4 -13
-3 -6 -16 -23 -17 -23 -2 0 17 27 39 49 39 12 0 21 5 21 10 0 6 7 10 15 10 8
0 15 -7 15 -15z m90 0 c0 -8 -4 -15 -10 -15 -5 0 -10 7 -10 15 0 8 5 15 10 15
6 0 10 -7 10 -15z m100 5 c0 -5 9 -10 21 -10 22 0 49 -22 49 -39 0 -15 -17
-14 -23 2 -2 7 -8 8 -13 3 -5 -5 -4 -11 4 -13 20 -8 14 -33 -9 -33 -12 0 -23
8 -26 20 -3 13 -14 20 -29 20 -15 0 -24 6 -24 15 0 8 5 15 10 15 6 0 10 7 10
15 0 8 7 15 15 15 8 0 15 -4 15 -10z m-332 -72 c-6 -18 -28 -21 -28 -4 0 9 7
16 16 16 9 0 14 -5 12 -12z m470 0 c-6 -18 -28 -21 -28 -4 0 9 7 16 16 16 9 0
14 -5 12 -12z m-524 -23 c8 -8 24 -15 35 -15 12 0 21 -5 21 -10 0 -20 -33 -23
-62 -7 -17 9 -38 17 -49 17 -10 0 -19 7 -19 15 0 10 10 15 29 15 16 0 36 -7
45 -15z m626 0 c0 -8 5 -15 10 -15 6 0 10 -7 10 -15 0 -8 -4 -15 -10 -15 -5 0
-10 7 -10 15 0 9 -10 15 -26 15 -14 0 -32 -7 -40 -15 -9 -8 -26 -15 -40 -15
-15 0 -24 6 -24 15 0 9 9 15 21 15 11 0 27 7 35 15 9 8 29 15 45 15 19 0 29
-5 29 -15z m110 -30 c0 -8 5 -15 10 -15 6 0 10 -7 10 -16 0 -18 23 -44 39 -44
6 0 11 -9 11 -20 0 -11 5 -20 10 -20 6 0 10 -13 10 -30 0 -16 -4 -30 -10 -30
-5 0 -10 -7 -10 -15 0 -11 -11 -15 -40 -15 -22 0 -40 -5 -40 -11 0 -6 -7 -4
-15 5 -22 22 -18 36 10 36 14 0 25 5 25 10 0 6 7 10 15 10 8 0 15 -4 15 -10 0
-5 7 -10 15 -10 10 0 15 10 15 30 0 20 -5 30 -15 30 -8 0 -15 7 -15 15 0 8 -4
15 -10 15 -5 0 -10 7 -10 15 0 8 -7 15 -16 15 -11 0 -14 5 -10 16 4 11 -1 18
-14 21 -26 7 -26 33 0 33 11 0 20 -7 20 -15z m-110 -26 c0 -5 -7 -9 -15 -9
-15 0 -20 12 -9 23 8 8 24 -1 24 -14z m-912 -264 c-7 -27 -17 -50 -23 -50 -5
0 -11 24 -13 53 -2 31 1 52 7 52 6 0 11 6 11 14 0 8 6 16 13 19 17 6 19 -30 5
-88z m1142 69 c0 -8 5 -14 10 -14 6 0 10 -22 10 -50 0 -38 -4 -50 -15 -50 -11
0 -15 11 -15 40 0 22 -4 40 -10 40 -5 0 -10 13 -10 30 0 22 4 28 15 24 8 -4
15 -12 15 -20z m-1050 -39 c0 -16 -6 -25 -16 -25 -12 0 -15 -5 -9 -22 11 -35
11 -73 0 -73 -5 0 -9 10 -7 23 2 14 -2 22 -13 22 -11 0 -15 11 -15 40 0 29 4
40 15 40 8 0 15 5 15 10 0 6 7 10 15 10 9 0 15 -9 15 -25z m970 15 c0 -5 7
-10 15 -10 11 0 15 -11 15 -40 0 -30 -4 -40 -16 -40 -10 0 -14 -7 -12 -22 1
-13 -2 -25 -7 -28 -14 -7 -19 50 -6 63 16 16 13 37 -4 37 -9 0 -15 9 -15 25 0
16 6 25 15 25 8 0 15 -4 15 -10z m100 -160 c0 -36 -2 -40 -25 -40 -14 0 -25 5
-25 10 0 6 -9 10 -20 10 -11 0 -20 7 -20 15 0 8 9 15 20 15 11 0 20 7 20 15 0
9 9 15 25 15 23 0 25 -4 25 -40z m-2 -118 c3 -40 -19 -92 -39 -92 -12 0 -11
57 1 65 6 3 10 22 10 41 0 51 24 38 28 -14z m-104 -88 c15 4 28 -1 39 -14 27
-32 21 -67 -18 -107 -19 -20 -35 -40 -35 -44 0 -12 -33 -49 -43 -49 -10 0 -37
-26 -37 -35 0 -10 -28 -35 -39 -35 -6 0 -11 5 -11 10 0 6 7 10 15 10 8 0 15 5
15 11 0 16 54 79 68 79 7 0 10 5 7 10 -3 6 1 13 9 16 9 3 16 15 16 25 0 12 10
23 25 29 19 7 25 17 25 40 0 20 -5 30 -15 30 -8 0 -15 -7 -15 -15 0 -8 -7 -15
-15 -15 -8 0 -15 7 -15 15 0 9 -9 15 -25 15 -14 0 -25 5 -25 10 0 6 5 10 10
10 6 0 10 7 10 16 0 14 2 14 16 -1 10 -10 26 -14 38 -11z m-936 0 c30 -6 28
-24 -3 -24 -16 0 -25 -6 -25 -15 0 -8 -6 -15 -14 -15 -8 0 -16 7 -20 15 -10
27 -26 16 -26 -19 0 -28 4 -35 23 -38 14 -2 23 -11 25 -25 2 -13 8 -23 13 -23
5 0 9 -7 9 -15 0 -8 7 -15 15 -15 8 0 15 -7 15 -15 0 -8 5 -15 11 -15 16 0 39
-26 39 -44 0 -9 7 -16 15 -16 8 0 15 -4 15 -10 0 -5 14 -10 30 -10 20 0 30 -5
30 -15 0 -9 9 -15 25 -15 14 0 25 -4 25 -10 0 -5 11 -10 25 -10 14 0 25 -4 25
-10 0 -5 23 -10 50 -10 38 0 50 -4 50 -15 0 -8 7 -15 15 -15 8 0 15 -4 15 -10
0 -5 -18 -10 -40 -10 -29 0 -40 4 -40 15 0 9 -9 15 -25 15 -14 0 -25 5 -25 10
0 6 -16 10 -35 10 -19 0 -35 5 -35 10 0 6 -9 10 -20 10 -11 0 -20 5 -20 10 0
6 -11 10 -25 10 -16 0 -25 6 -25 15 0 8 -5 15 -11 15 -11 0 -39 25 -39 35 0 9
-27 35 -37 35 -10 0 -43 37 -43 49 0 4 -11 17 -25 27 -14 10 -25 24 -25 31 0
7 -4 13 -10 13 -16 0 -11 58 6 79 16 18 45 23 92 15z m862 -79 c0 -8 7 -15 15
-15 8 0 15 -4 15 -9 0 -5 -7 -11 -15 -15 -8 -3 -15 -15 -15 -26 0 -12 -7 -28
-16 -37 -14 -14 -17 -14 -35 5 -26 28 -24 35 6 28 27 -7 32 4 13 33 -9 14 -8
22 3 34 18 21 29 21 29 2z m-610 -80 c0 -27 -15 -34 -24 -10 -3 8 -13 15 -21
15 -9 0 -13 5 -10 10 3 6 17 10 31 10 19 0 24 -5 24 -25z m430 15 c0 -5 -7
-10 -15 -10 -8 0 -15 -7 -15 -15 0 -16 -15 -20 -24 -7 -7 12 7 29 29 35 11 2
21 5 23 6 1 0 2 -3 2 -9z m117 -45 c19 -20 14 -26 -15 -18 -12 3 -22 12 -22
19 0 19 18 18 37 -1z m-577 -10 c0 -9 -9 -15 -23 -15 -12 0 -28 -9 -35 -20 -8
-13 -23 -20 -42 -20 -34 0 -42 20 -7 20 12 1 31 12 42 25 22 28 65 34 65 10z
m506 -10 c13 -14 32 -25 44 -25 11 0 20 -4 20 -10 0 -19 -59 -11 -72 10 -7 11
-23 20 -35 20 -14 0 -23 6 -23 15 0 24 40 18 66 -10z m-506 -40 c0 -8 -7 -15
-15 -15 -8 0 -15 7 -15 15 0 8 7 15 15 15 8 0 15 -7 15 -15z m133 -17 c20 -20
27 -33 19 -36 -6 -2 -12 -10 -12 -18 0 -8 -7 -14 -15 -14 -8 0 -15 5 -15 10 0
6 -11 10 -25 10 -16 0 -25 6 -25 15 0 8 -4 15 -10 15 -14 0 -13 18 3 35 20 23
46 17 80 -17z m253 18 c16 -17 19 -36 4 -36 -5 0 -10 -7 -10 -15 0 -9 -9 -15
-25 -15 -14 0 -25 -4 -25 -10 0 -5 -7 -10 -15 -10 -8 0 -15 6 -15 14 0 8 -6
17 -12 20 -10 5 -10 7 0 12 6 3 12 12 12 20 0 8 7 14 15 14 8 0 15 5 15 10 0
15 39 12 56 -4z m74 -1 c0 -8 -4 -15 -10 -15 -5 0 -10 7 -10 15 0 8 5 15 10
15 6 0 10 -7 10 -15z m100 -50 c0 -9 -9 -15 -25 -15 -14 0 -25 -4 -25 -10 0
-5 -7 -10 -15 -10 -8 0 -15 -4 -15 -10 0 -5 -18 -10 -40 -10 -28 0 -40 -4 -40
-14 0 -9 -7 -12 -20 -9 -12 3 -22 -1 -26 -11 -7 -18 -74 -23 -74 -6 0 6 5 10
10 10 6 0 10 7 10 15 0 11 12 15 50 15 28 0 50 5 50 10 0 6 14 10 30 10 17 0
30 5 30 10 0 6 11 10 25 10 16 0 25 6 25 15 0 9 9 15 25 15 16 0 25 -6 25 -15z
m-330 -20 c0 -8 -4 -15 -9 -15 -13 0 -22 16 -14 24 11 11 23 6 23 -9z m-27
-27 c3 -10 9 -10 26 0 24 14 51 16 51 3 0 -5 -7 -11 -15 -15 -8 -3 -15 -17
-15 -31 0 -21 -5 -25 -30 -25 -26 0 -31 5 -36 30 -4 17 -10 30 -15 30 -5 0 -9
5 -9 10 0 14 37 12 43 -2z"/>
<path d="M480 175 c0 -8 5 -15 10 -15 6 0 10 7 10 15 0 8 -4 15 -10 15 -5 0
-10 -7 -10 -15z"/>
<path d="M780 175 c0 -8 5 -15 10 -15 6 0 10 7 10 15 0 8 -4 15 -10 15 -5 0
-10 -7 -10 -15z"/>
<path d="M300 1180 c0 -5 9 -10 20 -10 11 0 20 5 20 10 0 6 -9 10 -20 10 -11
0 -20 -4 -20 -10z"/>
<path d="M620 1070 c0 -12 -45 -60 -55 -60 -8 0 -35 -27 -35 -34 0 -15 25 -3
50 24 15 17 33 30 38 30 6 0 12 6 15 13 3 8 11 5 24 -10 11 -13 24 -23 29 -23
5 0 16 -9 24 -20 15 -21 40 -27 40 -10 0 6 -5 10 -11 10 -6 0 -24 14 -39 30
-15 17 -33 30 -39 30 -6 0 -11 7 -11 15 0 8 -7 15 -15 15 -8 0 -15 -5 -15 -10z"/>
<path d="M603 965 c-13 -13 -23 -28 -23 -32 -1 -4 -14 -19 -30 -33 -17 -13
-30 -28 -30 -33 0 -4 -21 -30 -47 -56 -61 -62 -83 -89 -83 -101 0 -6 -9 -10
-21 -10 -31 0 -51 -26 -47 -62 3 -29 7 -33 36 -36 20 -2 32 -9 32 -18 0 -8 5
-14 10 -14 6 0 10 -6 10 -13 0 -12 34 -47 46 -47 10 0 34 -28 34 -39 0 -6 7
-11 15 -11 8 0 15 -4 15 -9 0 -5 23 -32 50 -61 28 -29 50 -56 50 -61 0 -5 9
-9 20 -9 11 0 20 4 20 8 0 4 16 25 35 46 19 21 35 42 35 47 0 5 7 9 15 9 8 0
15 7 15 15 0 8 4 15 8 15 5 0 15 11 22 25 7 14 19 25 27 25 7 0 13 4 13 9 0 5
9 13 20 16 11 3 20 13 20 21 0 8 5 14 10 14 6 0 10 6 10 14 0 9 12 16 28 18
22 2 28 8 30 36 3 34 -15 62 -42 62 -9 0 -16 5 -16 10 0 6 -13 24 -30 42 -16
17 -30 35 -30 39 0 5 -7 9 -15 9 -8 0 -15 5 -15 10 0 6 -10 21 -22 34 -38 38
-78 85 -78 91 0 12 -50 55 -62 54 -7 0 -23 -11 -35 -24z m47 -45 c0 -6 10 -22
23 -35 12 -13 45 -49 72 -81 28 -31 56 -63 63 -70 6 -7 12 -20 12 -28 0 -9 7
-16 15 -16 8 0 15 -6 15 -14 0 -8 6 -17 13 -20 10 -5 10 -7 0 -12 -7 -3 -13
-12 -13 -20 0 -8 -6 -14 -14 -14 -8 0 -23 -13 -33 -30 -9 -16 -25 -30 -35 -30
-10 0 -18 -7 -18 -16 0 -18 -23 -44 -39 -44 -6 0 -11 -4 -11 -10 0 -5 -7 -10
-15 -10 -8 0 -15 -7 -15 -15 0 -8 -4 -15 -9 -15 -5 0 -12 -10 -16 -22 -6 -20
-8 -20 -12 -6 -2 10 -11 18 -19 18 -8 0 -14 9 -14 20 0 11 -7 20 -15 20 -8 0
-15 5 -15 10 0 6 -5 10 -11 10 -13 0 -39 25 -39 38 0 5 -8 12 -19 15 -10 2
-24 18 -32 35 -7 17 -18 28 -26 25 -7 -3 -13 2 -13 11 0 9 -7 16 -15 16 -8 0
-15 9 -15 20 0 11 7 20 15 20 8 0 15 5 15 10 0 6 7 10 15 10 8 0 15 9 15 20 0
11 5 20 10 20 6 0 10 5 10 11 0 6 14 24 30 39 17 15 30 33 30 39 0 6 7 11 15
11 8 0 15 6 15 13 1 14 61 87 72 87 5 0 8 -5 8 -10z"/>
<path d="M480 956 c0 -9 -7 -16 -15 -16 -8 0 -15 -7 -15 -15 0 -11 -11 -15
-40 -15 -38 0 -40 -2 -40 -30 0 -28 -2 -30 -40 -30 -28 0 -40 -4 -40 -14 0 -8
-6 -17 -12 -19 -7 -3 4 -6 25 -6 26 -1 37 -5 37 -16 0 -8 -5 -15 -10 -15 -6 0
-23 -11 -38 -25 -15 -14 -22 -25 -15 -25 6 0 18 7 27 15 8 8 17 15 21 15 12 0
34 27 28 34 -4 3 -1 6 5 6 7 0 12 7 12 15 0 8 7 15 15 15 10 0 15 10 15 30 0
24 4 30 21 30 12 0 32 11 45 25 13 14 28 25 34 25 15 0 8 22 -8 28 -7 2 -12
-3 -12 -12z"/>
<path d="M770 955 c0 -8 7 -15 15 -15 8 0 15 -7 15 -15 0 -8 7 -15 15 -15 8 0
15 -4 15 -10 0 -5 11 -10 25 -10 21 0 25 -5 25 -30 0 -20 5 -30 15 -30 9 0 15
-9 15 -21 0 -24 14 -39 55 -59 49 -24 51 -24 36 -7 -7 10 -20 17 -27 17 -8 0
-14 5 -14 10 0 6 -7 10 -16 10 -32 0 -6 25 29 28 20 2 37 6 37 8 0 16 -33 34
-64 34 -33 0 -36 2 -36 30 0 28 -2 30 -40 30 -29 0 -40 4 -40 15 0 8 -7 15
-15 15 -8 0 -15 7 -15 15 0 8 -7 15 -15 15 -8 0 -15 -7 -15 -15z"/>
<path d="M1010 705 c0 -8 5 -15 10 -15 6 0 10 7 10 15 0 8 -4 15 -10 15 -5 0
-10 -7 -10 -15z"/>
<path d="M530 344 c0 -15 22 -44 34 -44 9 0 56 -51 56 -60 0 -20 22 -8 64 35
25 25 50 45 55 45 6 0 11 9 11 20 0 11 -7 20 -15 20 -8 0 -15 -7 -15 -16 0
-17 -23 -44 -37 -44 -5 0 -15 -9 -23 -20 -8 -11 -17 -20 -20 -20 -11 0 -76 65
-83 83 -8 21 -27 23 -27 1z"/>
</g>
</svg>
