<svg xmlns="http://www.w3.org/2000/svg" viewBox="0 0 800 800" fill="none">
  <path fill="url(#blob-brand)" d="M 617 118 Q 730 210 700 360 Q 670 510 540 590 Q 410 670 270 610 Q 130 550 100 400 Q 70 250 190 150 Q 310 50 460 60 Q 510 65 617 118 Z" />
  <path fill="url(#blob-metal)" d="M 560 540 Q 470 640 340 610 Q 210 580 170 460 Q 130 340 220 250 Q 310 160 440 190 Q 570 220 610 350 Q 650 480 560 540 Z" opacity="0.7" />
  <defs>
    <linearGradient id="blob-brand" x1="70" y1="60" x2="730" y2="670" gradientUnits="userSpaceOnUse">
      <stop offset="0%" stop-color="#4d8dff" />
      <stop offset="100%" stop-color="#1a2b52" />
    </linearGradient>
    <linearGradient id="blob-metal" x1="130" y1="160" x2="650" y2="640" gradientUnits="userSpaceOnUse">
      <stop offset="0%" stop-color="#dfe4ea" />
      <stop offset="100%" stop-color="#4d8dff" />
    </linearGradient>
  </defs>
</svg>
